<?xml version="1.0" encoding="UTF-8"?> <!-- Generator: Adobe Illustrator 23.0.1, SVG Export Plug-In . SVG Version: 6.00 Build 0) --> <svg xmlns="http://www.w3.org/2000/svg" xmlns:xlink="http://www.w3.org/1999/xlink" version="1.1" id="Layer_1" x="0px" y="0px" viewBox="0 0 125 20" style="enable-background:new 0 0 125 20;" xml:space="preserve"> <style type="text/css"> .st0{fill:#FFFFFF;} </style> <g> <path class="st0" d="M8.1,2.2c2,0,3.3,0.9,4.6,3.1l0.5,0.9l1.7-1l-0.5-0.9c-1.6-2.8-3.6-4.1-6.3-4.1C3.4,0.3,0,4.4,0,10.2 c0,6.6,4,9.6,7.9,9.6c2.6,0,4.9-1.4,6.5-3.9l0.5-0.8l-1.7-1l-0.5,0.8c-1.2,1.9-2.8,3-4.8,3c-4.4,0-5.9-4.1-5.9-7.6 C2,5.5,4.5,2.2,8.1,2.2z"></path> <polygon class="st0" points="61.8,0.5 59.8,0.5 59.8,19.2 72.3,19.2 72.3,17.4 61.8,17.4 "></polygon> <path class="st0" d="M36.3,0.3c-5.1,0-8.1,3.6-8.1,9.7c0,6.1,3,9.7,8.1,9.7c3,0,8.1-1.3,8.1-9.7C44.4,1.5,39.3,0.3,36.3,0.3z M36.3,17.7c-3.9,0-6.1-2.7-6.1-7.7c0-5,2.2-7.7,6.1-7.7c4,0,6.1,2.6,6.1,7.7C42.4,15.1,40.3,17.7,36.3,17.7z"></path> <polygon class="st0" points="91.1,0.5 84.3,18.5 86.2,19.2 92.3,2.9 97.3,16 97.6,16.6 96.9,16.1 92.3,13.3 91,14.7 98.6,19.2 98.6,19.2 100.7,19.2 93.5,0.5 "></polygon> <path class="st0" d="M122.3,9.2c0.8-0.8,1.4-2.1,1.4-3.9c0-3-1.8-4.8-4.8-4.8l-5.8,0l0,18.6l7.9,0c1.8-0.4,3.9-1.8,3.9-5.2 C125,11.5,123.7,10,122.3,9.2z M119.8,17.4l-4.7,0l0-14.8l3.8,0c2,0,2.8,0.9,2.8,2.8c0,2.7-1.8,3.1-2,3.2l0,0l-0.4,0.1l0,1.8 l0.4,0.1l0,0c0.1,0,3.1,0.4,3.1,3.5C123,17.1,120.5,17.4,119.8,17.4z"></path> </g> </svg> 